<?xml version="1.0" encoding="utf-8"?>
<!-- Generator: Adobe Illustrator 21.1.0, SVG Export Plug-In . SVG Version: 6.00 Build 0)  -->
<svg version="1.1" id="Layer_1" xmlns="http://www.w3.org/2000/svg" xmlns:xlink="http://www.w3.org/1999/xlink" x="0px" y="0px"
	 viewBox="0 0 438.9 214.8" style="enable-background:new 0 0 438.9 214.8;" xml:space="preserve">
<style type="text/css">
	.st0{opacity:0.5;}
	.st1{fill:url(#SVGID_1_);}
	.st2{fill:#B5121B;}
	.st3{fill:#E31837;}
	.st4{fill:#FFFFFF;}
	.st5{fill:#00AEEF;}
	.st6{fill:#FFCF01;}
	.st7{fill:#FAA919;}
	.st8{fill:#626366;}
	.st9{fill:#CF0A2C;}
	.st10{fill:#636567;}
</style>
<g>
	<g class="st0">
		
			<radialGradient id="SVGID_1_" cx="392.1626" cy="156.427" r="22.3851" gradientTransform="matrix(1 0 0 0.3 0 109.4989)" gradientUnits="userSpaceOnUse">
			<stop  offset="0" style="stop-color:#000000"/>
			<stop  offset="1" style="stop-color:#000000;stop-opacity:0"/>
		</radialGradient>
		<ellipse class="st1" cx="392.2" cy="156.4" rx="30.5" ry="8.6"/>
	</g>
	<g>
		<g>
			<path class="st2" d="M362.8,110.2c0,0-10,7.7-7.4,21.2c1-1.7,1-1.7,1-1.7s2.4,11.4,15,12.2C363.1,123.5,362.8,110.2,362.8,110.2z
				"/>
			<path class="st2" d="M421.2,109.9c0,0,9.9,7.6,7.1,21.1c-1-1.7-1-1.7-1-1.7s-2.7,11.4-15.3,12.4
				C420.6,123.3,421.2,109.9,421.2,109.9z"/>
			<path class="st3" d="M377.1,153.2c4.6,1.7,9.3,2,14.9,2c5.6,0,9.4-0.4,14.9-2c8.7-7.6,15.5-21.2,15.5-36.7
				c0-23.8-13.6-43-30.4-43c-6.2,0-11.9,2.6-16.7,7.1c-8.3,7.7-13.7,20.9-13.7,36C361.6,132,368.4,145.6,377.1,153.2z"/>
			<path class="st3" d="M408.3,70.2c0,0-20-3.9-35.1,12.5c16.4-2.6,31.8-2.6,31.8-2.6s2.6-3.9,6.6-4.5c-1.9-1.2-11-1.4-11-1.4
				S403.6,72,408.3,70.2z"/>
			<g>
				<g>
					<path class="st4" d="M402.7,88.7c-4.5,0-8.4,2.9-10.7,7.2c-2.3-4.3-6.2-7.2-10.7-7.2c-7,0-12.7,7-12.7,15.7
						c0,8.6,5.7,15.7,12.7,15.7c4.5,0,8.4-2.9,10.7-7.2c2.3,4.3,6.2,7.2,10.7,7.2c7,0,12.7-7,12.7-15.7
						C415.4,95.7,409.7,88.7,402.7,88.7z"/>
				</g>
			</g>
			<path class="st2" d="M372.3,130.2c1,11.4,5.1,19.9,7.5,23.8c3.8,1,7.7,1.2,12.2,1.2c5,0,8.6-0.4,13.3-1.6
				c4.9-7.8,6.1-21.2,6.1-23.4C392,125,372.3,130.2,372.3,130.2z"/>
			<circle class="st5" cx="385" cy="105.7" r="4.4"/>
			<circle class="st4" cx="386.6" cy="104.2" r="1.5"/>
			<circle class="st5" cx="398.9" cy="105.7" r="4.4"/>
			<circle class="st4" cx="400.4" cy="104.2" r="1.5"/>
			<path class="st2" d="M373.6,87.3c0,0,4.1-3.8,11.4-4.2c-0.2-3.2-0.2-3.2-0.2-3.2S375.5,80.6,373.6,87.3z"/>
			<path class="st2" d="M410,87.3c0,0-4.1-3.8-11.4-4.2c0.2-3.2,0.2-3.2,0.2-3.2S408.1,80.6,410,87.3z"/>
			<path class="st6" d="M403.7,158.2c-0.3,2-2.9,1.8-5,1.5c-2-0.3-3.5-2.1-3.2-4.1c0.3-2,2.2-3.4,4.2-3.1
				C401.7,152.7,403.9,156.2,403.7,158.2z"/>
			<path class="st6" d="M409.4,157c-0.3,2-2.9,1.8-5,1.5c-2-0.3-3.5-2.1-3.2-4.1c0.3-2,2.2-3.4,4.2-3.1
				C407.5,151.6,409.7,155,409.4,157z"/>
			<path class="st6" d="M412.6,155.2c-0.2,1.7-2.5,1.5-4.2,1.2c-1.7-0.2-2.9-1.8-2.7-3.5c0.2-1.7,1.8-2.8,3.5-2.6
				C411,150.6,412.9,153.6,412.6,155.2z"/>
			<g>
				<path class="st3" d="M394.5,147.6h0.8c-0.5,1.1-1.2,2-2,2.9c-0.8,0.8-1.6,1.2-2.4,1.2c-0.5,0-1-0.2-1.4-0.6
					c-0.4-0.4-0.6-0.9-0.6-1.6c0-0.6,0.3-1.7,0.8-3.4l1.7-5.1c0.4-1.2,0.6-1.9,0.6-2.2c0-0.2-0.1-0.4-0.2-0.5
					c-0.1-0.1-0.3-0.2-0.5-0.2c-0.4,0-0.9,0.3-1.5,1c-0.6,0.7-1,1.3-1.3,1.8h-0.8c0.6-1.2,1.3-2.2,2.1-2.9c0.8-0.7,1.5-1,2.2-1
					c0.5,0,0.9,0.2,1.3,0.5c0.3,0.4,0.5,0.8,0.5,1.4c0,0.6-0.3,1.7-0.8,3.2l-1.4,4.3c-0.5,1.6-0.8,2.5-0.8,2.9
					c0,0.3,0.1,0.6,0.2,0.7c0.1,0.2,0.3,0.2,0.6,0.2C392.4,150.5,393.4,149.5,394.5,147.6z M393,132.8c0-0.4,0.1-0.7,0.4-1
					c0.3-0.3,0.6-0.4,1-0.4c0.4,0,0.7,0.1,1,0.4c0.3,0.3,0.4,0.6,0.4,1c0,0.4-0.1,0.7-0.4,1c-0.3,0.3-0.6,0.4-1,0.4
					c-0.4,0-0.8-0.1-1-0.4C393.1,133.5,393,133.2,393,132.8z"/>
			</g>
			<path class="st6" d="M381.1,158.2c0.3,2,2.9,1.8,5,1.5c2-0.3,3.5-2.1,3.2-4.1c-0.3-2-2.2-3.4-4.2-3.1
				C383,152.7,380.8,156.2,381.1,158.2z"/>
			<path class="st6" d="M375.4,157c0.3,2,2.9,1.8,5,1.5c2-0.3,3.5-2.1,3.2-4.1c-0.3-2-2.2-3.4-4.2-3.1
				C377.3,151.6,375.1,155,375.4,157z"/>
			<path class="st6" d="M372.1,155.2c0.2,1.7,2.5,1.5,4.2,1.2c1.7-0.2,2.9-1.8,2.7-3.5c-0.2-1.7-1.8-2.8-3.5-2.6
				C373.8,150.6,371.9,153.6,372.1,155.2z"/>
			<path class="st7" d="M401.7,153.6c0,0,1.6,1.4,2,4.2C404.1,157.6,404.6,153.9,401.7,153.6z"/>
			<path class="st7" d="M406.7,151.9c0,0,1.6,0.9,2.6,4.1C410.1,155.7,409.2,151.8,406.7,151.9z"/>
			<path class="st7" d="M383.2,153.6c0,0-1.6,1.4-2,4.2C380.8,157.6,380.2,153.9,383.2,153.6z"/>
			<path class="st7" d="M378.1,151.9c0,0-1.6,0.9-2.6,4.1C374.7,155.7,375.7,151.8,378.1,151.9z"/>
			<ellipse class="st6" cx="391.8" cy="124.2" rx="4.2" ry="5"/>
			<path class="st7" d="M387.6,124.2c0,0.5,0.1,0.9,0.2,1.3l4.1,2l4.1-1.9c0.1-0.5,0.2-1,0.2-1.5c0-0.1,0-0.2,0-0.3l-8.4-0.2
				C387.6,123.8,387.6,124,387.6,124.2z"/>
			<path class="st6" d="M391.8,126.8l5.7-2.4c0.3-1,0.5-2.1,0.5-3.2c0-4.6-2.8-8.4-6.2-8.4c-3.4,0-6.2,3.7-6.2,8.4
				c0,1,0.1,2,0.4,2.9L391.8,126.8z"/>
		</g>
	</g>
</g>
<g>
	<g>
		<path class="st8" d="M127.7,106.9c-2.8-1.3-5.9-2.2-10.7-2.2c-9.8,0-16,7.8-16,19.2c0,11.2,5.3,19.8,16.4,19.8
			c4.5,0,9.4-1.6,12.1-2.8l0.7,13.1c-4.6,1.4-9.3,2-15.8,2c-19.9,0-29.9-13.5-29.9-32c0-17.5,10.4-31.4,29.3-31.4
			c6.4,0,11,0.7,15.3,2L127.7,106.9z"/>
		<path class="st8" d="M136.5,93.9h15.8v60.6h-15.8V93.9z"/>
		<path class="st8" d="M162.8,93.9h14.3v8.5h0.2c4.8-7.4,11.7-9.9,17.4-9.9c8.2,0,14,3.2,17.3,10.7c3.5-7.3,11.2-10.7,18.4-10.7
			c14.5,0,18.6,10.2,18.6,23.8v38.3h-15.3v-36.2c0-5.6,0-13.7-8.8-13.7c-10.1,0-11.4,12.5-11.4,20.4v29.4h-15.3v-36.2
			c0-5.6,0-13.7-8.8-13.7c-10.2,0-11.4,12.5-11.4,20.4v29.4h-15.3V93.9z"/>
		<path class="st8" d="M293.6,106.6c-4.8-1.7-8.4-2.6-14.1-2.6c-4.2,0-9.3,1.5-9.3,6.7c0,9.7,27.4,3.5,27.4,25.4
			c0,14.1-12.6,19.8-25.4,19.8c-6,0-12.1-1.1-17.9-2.6l0.9-13c4.9,2.5,10.1,4,15.5,4c4,0,10.4-1.5,10.4-7.4
			c0-11.9-27.4-3.8-27.4-25.7c0-13.1,11.4-18.8,23.8-18.8c7.4,0,12.2,1.2,17.2,2.2L293.6,106.6z"/>
	</g>
</g>
<g>
	<path class="st9" d="M76.1,168.3h8c-5.2,10.7-11.9,20.2-20.3,28.5c-8.3,8.3-16.3,12.4-24.1,12.4c-5.2,0-9.7-1.9-13.6-5.6
		c-3.9-3.7-5.9-9.2-5.9-16.3c0-5.9,2.7-17.1,8.2-33.7l16.9-50.6c3.9-11.8,5.9-19,5.9-21.5c0-2.2-0.5-3.8-1.6-5
		c-1.1-1.1-2.6-1.6-4.7-1.6c-4.3,0-9.5,3.3-15.4,10C23.6,91.6,19.4,97.6,17,103H9c6.1-12,13-21.5,20.8-28.5
		c7.8-7,15.1-10.4,21.8-10.4c5.2,0,9.5,1.8,12.8,5.3c3.3,3.5,5,8.2,5,13.9c0,5.9-2.6,16.6-7.8,32.2l-14.2,43.1
		c-5.2,15.6-7.8,25.4-7.8,29.3c0,3.2,0.6,5.6,1.9,7.2c1.3,1.6,3.1,2.4,5.6,2.4C55.3,197.5,65,187.8,76.1,168.3z M61.1,20.6
		c0-4,1.4-7.4,4.2-10.2c2.8-2.8,6.3-4.2,10.3-4.2c4,0,7.4,1.4,10.2,4.2c2.8,2.8,4.3,6.2,4.3,10.2c0,4-1.4,7.4-4.3,10.3
		c-2.8,2.9-6.2,4.3-10.2,4.3c-4.1,0-7.6-1.5-10.3-4.4C62.5,27.9,61.1,24.5,61.1,20.6z"/>
</g>
<g>
	<path class="st8" d="M313.5,86.8c0,2.4-0.8,4.4-2.5,6c-1.7,1.7-3.7,2.5-6,2.5c-2.3,0-4.4-0.8-6-2.5c-1.7-1.7-2.5-3.7-2.5-6
		c0-2.3,0.8-4.4,2.5-6c1.7-1.7,3.7-2.5,6-2.5c2.4,0,4.4,0.8,6,2.5C312.7,82.4,313.5,84.4,313.5,86.8z M311.4,86.8
		c0-2-0.6-3.6-1.9-4.9c-1.2-1.3-2.8-1.9-4.6-1.9c-1.8,0-3.3,0.6-4.6,1.9c-1.3,1.3-1.9,3-1.9,4.9c0,2,0.6,3.6,1.9,4.9
		c1.2,1.3,2.8,1.9,4.6,1.9c1.8,0,3.3-0.7,4.6-2C310.8,90.4,311.4,88.7,311.4,86.8z M308.9,91.6H307l-2.5-4.2h-1.1v4.2h-1.8v-9.7h3.6
		c2.4,0,3.6,0.9,3.6,2.8c0,1.6-0.8,2.5-2.5,2.6L308.9,91.6z M307,84.6c0-0.9-0.7-1.3-2-1.3h-1.6V86h1.6c0.6,0,1.1-0.1,1.4-0.2
		C306.8,85.6,307,85.2,307,84.6z"/>
</g>
<g>
	<path class="st10" d="M152.8,190.7h-2.7v-8.6h-9v8.6h-2.7v-18.9h2.7v7.9h9v-7.9h2.7V190.7z"/>
	<path class="st10" d="M160.6,173.8h-2.9v-2.9h2.9V173.8z M160.4,190.7h-2.5v-13.8h2.5V190.7z"/>
	<path class="st10" d="M172.8,179c-0.4-0.2-0.9-0.2-1.4-0.2c-1.1,0-2.1,0.5-2.7,1.5c-0.7,1-1,2.4-1,4.1v6.3h-2.5v-13.8h2.4v2.1h0.1
		c0.3-0.7,0.8-1.3,1.5-1.8c0.7-0.5,1.4-0.7,2.1-0.7c0.5,0,1,0.1,1.7,0.2V179z"/>
	<path class="st10" d="M187.2,184.4h-9.8c0,1.3,0.5,2.4,1.4,3.3c0.9,0.9,1.9,1.3,3.2,1.3c0.8,0,1.6-0.2,2.5-0.5
		c0.8-0.3,1.4-0.6,1.7-0.9v2.5c-1.7,0.6-3.1,0.9-4.4,0.9c-2.4,0-4.2-0.7-5.4-2.1c-1.2-1.3-1.7-3.1-1.7-5.4c0-2.1,0.6-3.7,1.8-5
		c1.2-1.3,2.8-1.9,4.7-1.9C185.2,176.6,187.2,179.2,187.2,184.4z M184.5,182.5c0-1.1-0.3-2-0.9-2.7c-0.6-0.7-1.5-1.1-2.5-1.1
		c-1.1,0-2.1,0.4-2.7,1.2c-0.5,0.7-0.9,1.5-1,2.6H184.5z"/>
	<path class="st10" d="M209.1,190.7h-10.6v-18.9h10.6v2.4h-7.9v5.5h7.2v2.4h-7.2v6.2h7.9V190.7z"/>
	<path class="st10" d="M224.3,190.7h-3.1l-3.4-5.4l-3.4,5.4h-3l5-7.2l-4.5-6.6h3.2l3,4.9l3.1-4.9h2.8l-4.4,6.6L224.3,190.7z"/>
	<path class="st10" d="M239.8,183.5c0,2.1-0.5,3.8-1.4,5.2c-1.1,1.5-2.6,2.3-4.5,2.3c-2.2,0-3.7-0.7-4.6-2.2h-0.1v7.6h-2.5v-19.5
		h2.4v1.9h0.1c1-1.5,2.6-2.3,4.7-2.3c1.9,0,3.4,0.7,4.5,2.1C239.3,179.9,239.8,181.6,239.8,183.5z M237.1,183.7
		c0-1.4-0.3-2.6-0.9-3.5c-0.7-1.1-1.6-1.6-2.9-1.6c-1.3,0-2.3,0.5-3.1,1.6c-0.7,1-1,2.2-1,3.6c0,1.3,0.3,2.5,1,3.4
		c0.7,1.1,1.8,1.7,3.1,1.7c1.2,0,2.2-0.6,2.9-1.8C236.8,186.2,237.1,185,237.1,183.7z"/>
	<path class="st10" d="M254.9,184.4H245c0,1.3,0.5,2.4,1.4,3.3c0.9,0.9,1.9,1.3,3.2,1.3c0.8,0,1.6-0.2,2.5-0.5
		c0.8-0.3,1.4-0.6,1.7-0.9v2.5c-1.7,0.6-3.1,0.9-4.4,0.9c-2.4,0-4.2-0.7-5.4-2.1c-1.2-1.3-1.7-3.1-1.7-5.4c0-2.1,0.6-3.7,1.8-5
		c1.2-1.3,2.8-1.9,4.7-1.9C252.8,176.6,254.9,179.2,254.9,184.4z M252.2,182.5c0-1.1-0.3-2-0.9-2.7c-0.6-0.7-1.5-1.1-2.5-1.1
		c-1.1,0-2.1,0.4-2.7,1.2c-0.5,0.7-0.9,1.5-1,2.6H252.2z"/>
	<path class="st10" d="M267.4,190.4c-0.8,0.4-1.9,0.6-3.2,0.6c-2,0-3.7-0.7-5.1-2.1c-1.3-1.4-2-3.1-2-5.1c0-2.1,0.6-3.8,1.9-5.2
		c1.3-1.4,3-2,5.1-2c1.2,0,2.2,0.2,3.1,0.5l-0.2,2.1c-1-0.4-1.9-0.6-2.8-0.6c-1.3,0-2.4,0.5-3.3,1.6c-0.8,1-1.1,2.2-1.1,3.6
		c0,1.4,0.4,2.5,1.1,3.5c0.8,1.1,2,1.7,3.5,1.7c1,0,1.9-0.3,2.7-0.8L267.4,190.4z"/>
	<path class="st10" d="M277.8,190.6c-0.9,0.3-1.6,0.4-2.2,0.4c-2.8,0-4.2-1.3-4.2-4v-8.1h-3.1v-2h3.1v-3.2l2.5-0.8v4h3.7v2H274v7.6
		c0,0.8,0.2,1.4,0.6,1.8c0.4,0.4,0.9,0.6,1.5,0.6c0.7,0,1.2-0.2,1.7-0.5V190.6z"/>
	<path class="st10" d="M291.7,190.7h-2.4v-1.8h-0.1c-1,1.4-2.4,2.1-4.3,2.1c-1.6,0-2.8-0.3-3.6-1c-0.9-0.7-1.4-1.8-1.4-3.3
		c0-1.6,0.7-2.8,2.2-3.6c1.2-0.7,2.6-1,4.2-1c1.1,0,2,0,2.7,0.1c0-1.2-0.2-2.1-0.7-2.7c-0.5-0.6-1.4-0.9-2.7-0.9
		c-1.6,0-2.9,0.5-4,1.4l-0.1-2.2c1.5-0.9,3-1.3,4.5-1.3c1.9,0,3.4,0.5,4.3,1.4c0.9,0.9,1.3,2.3,1.3,4.3v5.7
		C291.6,189.2,291.6,190.1,291.7,190.7z M289,185.3v-1.2c-0.2,0-0.4,0-0.8,0c-0.4,0-0.6,0-0.8,0c-3.2,0-4.8,0.9-4.8,2.7
		c0,0.7,0.3,1.2,0.8,1.7c0.5,0.4,1.1,0.6,1.7,0.6c1.2,0,2.2-0.3,2.9-1C288.7,187.3,289,186.4,289,185.3z"/>
	<path class="st10" d="M303.4,190.6c-0.9,0.3-1.6,0.4-2.2,0.4c-2.8,0-4.2-1.3-4.2-4v-8.1h-3.1v-2h3.1v-3.2l2.5-0.8v4h3.7v2h-3.7v7.6
		c0,0.8,0.2,1.4,0.6,1.8c0.4,0.4,0.9,0.6,1.5,0.6c0.6,0,1.2-0.2,1.7-0.5V190.6z"/>
	<path class="st10" d="M309.4,173.8h-2.9v-2.9h2.9V173.8z M309.2,190.7h-2.5v-13.8h2.5V190.7z"/>
	<path class="st10" d="M327,183.8c0,2-0.7,3.7-2,5.1c-1.3,1.4-3,2.1-5,2.1c-2.1,0-3.7-0.7-5.1-2.1c-1.3-1.4-2-3.1-2-5.1
		c0-2.1,0.6-3.8,1.9-5.2c1.3-1.4,3-2,5.1-2c2.1,0,3.8,0.7,5.1,2C326.4,179.9,327,181.7,327,183.8z M324.3,183.8
		c0-1.4-0.4-2.6-1.1-3.6c-0.8-1.1-1.9-1.6-3.2-1.6c-1.3,0-2.4,0.5-3.2,1.6c-0.8,1-1.1,2.2-1.1,3.6c0,1.4,0.3,2.5,1,3.5
		c0.8,1.1,1.9,1.7,3.3,1.7c1.4,0,2.5-0.6,3.3-1.7C324,186.3,324.3,185.2,324.3,183.8z"/>
	<path class="st10" d="M342.6,190.7h-2.5v-7.1c0-1.7-0.2-2.9-0.6-3.6c-0.4-0.8-1.2-1.2-2.3-1.3c-1.4,0-2.5,0.5-3.2,1.5
		c-0.7,1-1,2.4-1,4.1v6.4h-2.5v-13.8h2.5v2.2h0.1c0.4-0.8,1-1.4,1.8-1.8c0.8-0.5,1.7-0.7,2.7-0.7c3.4,0,5.2,2,5.2,5.9V190.7z"/>
	<path class="st10" d="M354.4,186.7c0,1.4-0.5,2.5-1.5,3.2c-0.9,0.7-2,1.1-3.3,1.1c-1.6,0-2.8-0.3-3.8-0.8l0.1-2.3
		c1,0.7,2.1,1,3.2,1c0.7,0,1.3-0.1,1.7-0.4c0.6-0.3,0.9-0.9,0.9-1.5c0-0.7-0.5-1.3-1.5-1.8c-1-0.5-1.9-1-2.9-1.6
		c-1-0.7-1.5-1.7-1.5-2.8c0-1.4,0.5-2.4,1.4-3.2c0.9-0.7,2-1,3.5-1c0.9,0,2,0.2,3.2,0.5l-0.2,2.2c-0.3-0.2-0.7-0.3-1.3-0.5
		c-0.6-0.1-1-0.2-1.3-0.2c-0.7,0-1.3,0.1-1.7,0.4c-0.5,0.3-0.7,0.7-0.7,1.3c0,0.7,0.5,1.4,1.6,1.9c1,0.5,1.9,1,2.9,1.5
		C353.9,184.5,354.4,185.4,354.4,186.7z"/>
	<g>
		<path class="st8" d="M368.7,173.2c0,1.5-0.5,2.8-1.6,3.9c-1.1,1.1-2.4,1.6-3.9,1.6c-1.5,0-2.8-0.5-3.9-1.6
			c-1.1-1.1-1.6-2.4-1.6-3.9c0-1.5,0.5-2.8,1.6-3.9c1.1-1.1,2.4-1.6,3.9-1.6c1.5,0,2.8,0.5,3.9,1.6
			C368.1,170.4,368.7,171.7,368.7,173.2z M367.3,173.2c0-1.3-0.4-2.3-1.2-3.2c-0.8-0.8-1.8-1.2-2.9-1.2c-1.2,0-2.1,0.4-2.9,1.2
			c-0.8,0.8-1.2,1.9-1.2,3.2c0,1.3,0.4,2.3,1.2,3.2c0.8,0.8,1.8,1.2,2.9,1.2c1.2,0,2.1-0.4,2.9-1.3
			C366.9,175.6,367.3,174.5,367.3,173.2z M365.7,176.3h-1.2l-1.6-2.7h-0.7v2.7h-1.1v-6.2h2.3c1.5,0,2.3,0.6,2.3,1.8
			c0,1-0.5,1.6-1.6,1.7L365.7,176.3z M364.5,171.8c0-0.6-0.4-0.9-1.3-0.9h-1v1.8h1c0.4,0,0.7,0,0.9-0.1
			C364.4,172.5,364.5,172.2,364.5,171.8z"/>
	</g>
</g>
</svg>
