<?xml version="1.0" encoding="utf-8"?>
<!-- Generator: Adobe Illustrator 21.0.0, SVG Export Plug-In . SVG Version: 6.00 Build 0)  -->
<svg version="1.1" id="Layer_1" xmlns="http://www.w3.org/2000/svg" xmlns:xlink="http://www.w3.org/1999/xlink" x="0px" y="0px"
	 viewBox="0 0 552 128" style="enable-background:new 0 0 552 128;" xml:space="preserve">
<g>
	<g>
		<path d="M-285.5-234.6h12c10.9,0,15.7,3.4,15.7,10.5c0,6.1-4.8,10.2-14.5,10.2h-13.2V-234.6z M-300-165.6h29.3
			c15.4,0,30.8-5.5,30.8-23.2c0-10.5-7.4-18.5-17.6-19.7v-0.2c8.4-2.5,14.2-8.6,14.2-17.8c0-14.8-12.7-20.5-25-20.5H-300V-165.6z
			 M-285.5-201.5h13.9c11.7,0,17.3,3,17.3,11.5c0,10.7-10.4,12-17.8,12h-13.4V-201.5z"/>
		<rect x="-230.4" y="-249" width="13.8" height="83.4"/>
		<path d="M-193.5-193.2c0-8.6,6.1-16.6,16.2-16.6c10.1,0,16.2,7.9,16.2,16.6c0,8.6-6.1,16.6-16.2,16.6
			C-187.4-176.7-193.5-184.6-193.5-193.2 M-207.3-193.2c0,17.4,13.3,29,30,29s30-11.6,30-29s-13.3-29-30-29
			S-207.3-210.6-207.3-193.2"/>
		<path d="M-127.2-193.2c0-8.6,6.1-16.6,16.2-16.6c10.1,0,16.2,7.9,16.2,16.6c0,8.6-6.1,16.6-16.2,16.6
			C-121.1-176.7-127.2-184.6-127.2-193.2 M-141-193.2c0,17.4,13.4,29,30,29c16.7,0,30-11.6,30-29s-13.3-29-30-29
			S-141-210.6-141-193.2"/>
		<path d="M-72.5-220.8h13.1v8.6h0.2c2.4-5.2,7.7-10,16.9-10c8.5,0,14.4,3.3,17.3,10.2c4-7,9.9-10.2,18.2-10.2
			c14.7,0,19.9,10.5,19.9,23.7v32.9H-0.7v-31.3c0-6.9-2.1-12.9-10.2-12.9c-8.6,0-11.9,7.1-11.9,14.3v29.9h-13.8v-32.9
			c0-6.8-2.8-11.3-9.4-11.3c-9.1,0-12.7,6.7-12.7,14v30.1h-13.8L-72.5-220.8L-72.5-220.8z"/>
		<path d="M70-193.2c0,8.6-6.1,16.6-16.2,16.6s-16.2-7.9-16.2-16.6c0-8.6,6.1-16.6,16.2-16.6C63.9-209.8,70-201.9,70-193.2
			 M24.3-165.6h13.1v-8.3h0.2c4,6.7,11.3,9.7,19,9.7c17,0,27.3-12.7,27.3-29c0-16.3-10.9-29-26.7-29c-10.4,0-15.9,4.8-18.7,8.4h-0.3
			V-249H24.4v83.4H24.3z"/>
		<path d="M103.9-198.8c1-7.9,6.1-13.1,14.3-13.1c8.6,0,13.9,5.1,14,13.1C132.2-198.8,103.9-198.8,103.9-198.8z M146-188.4v-3.8
			c0-19.2-10.5-30-25.9-30c-16.7,0-30,11.6-30,29s13.3,29,30,29c8.7,0,16.9-3.1,23.4-11l-9.9-7.5c-3.5,4.2-7.9,7.5-14.8,7.5
			c-7.7,0-13.9-4.9-14.9-13.1H146V-188.4z"/>
		<path d="M155-220.8h13.8v8.7h0.2c3-6.3,9.1-10.1,16.3-10.1c1.7,0,3.3,0.3,4.9,0.8v13.3c-2.3-0.6-4.5-1-6.7-1
			c-13,0-14.9,10.9-14.9,13.9v29.6H155V-220.8z"/>
		<path d="M221.2-209.8c10,0,16.3,6.7,16.3,16.2c0,9.2-6.2,16.2-16.4,16.2c-9.3,0-16.2-7.2-16.2-16
			C204.9-203.1,211.6-209.8,221.2-209.8 M237.5-220.8v8.3h-0.2c-4-6.7-11.3-9.7-19-9.7c-17,0-27.3,12.7-27.3,29
			c0,15.6,10.9,28.3,27.5,28.3c6.9,0,14-2.7,18.1-8.1h0.2v4c0,10.9-4.1,18.5-17.5,18.5c-7.7,0-13.5-2.9-19-7.9l-8.3,11.3
			c7.8,6.9,17.1,9.1,27.4,9.1c21.5,0,31.2-12.7,31.2-32.6v-50.2H237.5z"/>
	</g>
</g>
</svg>
