<?xml version="1.0" encoding="UTF-8" standalone="no"?>
<!-- Created with Inkscape (http://www.inkscape.org/) -->

<svg xmlns:dc="http://purl.org/dc/elements/1.1/" xmlns:cc="http://creativecommons.org/ns#" xmlns:rdf="http://www.w3.org/1999/02/22-rdf-syntax-ns#" xmlns:svg="http://www.w3.org/2000/svg" xmlns="http://www.w3.org/2000/svg" xmlns:sodipodi="http://sodipodi.sourceforge.net/DTD/sodipodi-0.dtd" xmlns:inkscape="http://www.inkscape.org/namespaces/inkscape" width="540.14276" height="119.9993" id="svg2" version="1.1" inkscape:version="0.48.5 r10040" sodipodi:docname="New-verizon-logo.svg">
  <defs id="defs4" />
  <sodipodi:namedview id="base" pagecolor="#ffffff" bordercolor="#666666" borderopacity="1.0" inkscape:pageopacity="0.0" inkscape:pageshadow="2" inkscape:zoom="2.9846662" inkscape:cx="136.5767" inkscape:cy="47.081997" inkscape:document-units="px" inkscape:current-layer="layer1" showgrid="false" showguides="true" inkscape:guide-bbox="true" fit-margin-top="0" fit-margin-left="0" fit-margin-right="0" fit-margin-bottom="0" inkscape:window-width="1366" inkscape:window-height="706" inkscape:window-x="-8" inkscape:window-y="-8" inkscape:window-maximized="1" />
  <metadata id="metadata7">
    <rdf:RDF>
      <cc:Work rdf:about="">
        <dc:format>image/svg+xml</dc:format>
        <dc:type rdf:resource="http://purl.org/dc/dcmitype/StillImage" />
        <dc:title></dc:title>
      </cc:Work>
    </rdf:RDF>
  </metadata>
  <g inkscape:label="Layer 1" inkscape:groupmode="layer" id="layer1" transform="translate(-98.84956,-393.08439)">
    <g id="g3104">
      <path d="m 176.05878,432.69593 -21.34896,0 -16.49797,53.19206 -0.30492,0 -16.5026,-53.19206 -22.55477,0 26.79592,77.90496 23.91767,0 z" style="font-size:48px;font-style:normal;font-variant:normal;font-weight:bold;font-stretch:normal;line-height:125%;letter-spacing:0px;word-spacing:0px;fill:black;fill-opacity:1;stroke:none;font-family:Helvetica75;-inkscape-font-specification:Helvetica75 Bold" id="path3001" inkscape:connector-curvature="0" />
      <path sodipodi:nodetypes="ccccccccssssssssccssscccssccccc" d="m 251.72575,477.92231 c -9e-5,-0.39811 -9e-5,-2.52756 0,-3.42424 0.10156,-0.79629 0.15234,-1.39353 0.15234,-1.79173 -10e-5,-5.67761 -0.83324,-11.05585 -2.49942,-16.13477 -1.66636,-5.07883 -4.08876,-9.56046 -7.26724,-13.44491 -3.1786,-3.88431 -7.16489,-6.94728 -11.95884,-9.18894 -4.79404,-2.24149 -10.26951,-3.36229 -16.42635,-3.36235 -5.85511,6e-5 -11.25508,1.02133 -16.19997,3.06372 -4.94496,2.04259 -9.18381,4.90647 -12.71654,8.59171 -3.53276,3.68535 -6.25777,8.0173 -8.17506,12.99582 -1.9173,4.9786 -2.87593,10.35688 -2.87593,16.13478 0,5.87522 0.934,11.32796 2.80203,16.35818 1.868,5.03025 4.54296,9.36295 8.02491,12.9981 3.48191,3.63515 8.13122,7.12124 13.07617,9.06346 4.94489,1.94218 10.0091,2.91327 16.06439,2.91327 9.08285,0 16.72815,-2.11694 22.93593,-6.35089 6.20765,-4.23391 11.82064,-10.5208 14.74672,-19.38376 l -21.88758,0 c -1.48999,2.15371 -1.7145,3.85949 -4.42229,5.64041 -3.19361,2.10045 -5.25822,2.62786 -9.39458,2.62786 -6.05532,0 -10.26172,-0.80953 -13.49107,-3.99791 -3.22939,-3.18835 -4.99652,-6.63623 -5.30141,-13.30781 z m -55.07521,-16.06026 c 0.10156,-1.69292 0.28066,-2.76365 0.88592,-4.60715 0.60518,-1.84332 1.78901,-3.17562 3.20275,-4.86863 1.41368,-1.69291 3.25553,-3.08722 5.52553,-4.18303 2.2699,-0.92128 4.52188,-1.27013 7.75284,-1.27019 4.78343,0.34878 5.98346,1.32703 9.25076,3.77995 2.58772,3.30019 4.64262,5.57177 5.65291,11.14905 z" style="font-size:48px;font-style:normal;font-variant:normal;font-weight:bold;font-stretch:normal;line-height:125%;letter-spacing:0px;word-spacing:0px;fill:black;fill-opacity:1;stroke:none;font-family:Helvetica75;-inkscape-font-specification:Helvetica75 Bold" id="path3003" inkscape:connector-curvature="0" />
      <g style="fill:black" transform="matrix(1.0505527,0,0,1,-15.909266,0)" id="g3026">
        <path inkscape:connector-curvature="0" style="font-size:48px;font-style:normal;font-variant:normal;font-weight:bold;font-stretch:normal;line-height:125%;letter-spacing:0px;word-spacing:0px;fill:black;fill-opacity:1;stroke:none;font-family:Helvetica75;-inkscape-font-specification:Helvetica75 Bold" d="m 314.70645,510.23865 21.4968,0 0,-77.74261 -21.4968,0 z" id="path3024" />
        <path style="font-size:48px;font-style:normal;font-variant:normal;font-weight:bold;font-stretch:normal;line-height:125%;letter-spacing:0px;word-spacing:0px;fill:black;fill-opacity:1;stroke:none;font-family:Helvetica75;-inkscape-font-specification:Helvetica75 Bold" d="m 336.20325,404.68511 -21.4968,0 0,20.12999 21.4968,0 z" id="path3007" inkscape:connector-curvature="0" />
      </g>
      <path d="m 412.76758,471.90576 c -3e-5,12.41238 3.68364,22.37845 11.05099,29.89826 7.36731,7.51977 17.15705,11.27967 29.36925,11.27967 12.31375,0 22.15433,-3.7599 29.52174,-11.27967 7.36725,-7.51981 11.05089,-17.48588 11.05099,-29.89826 -1e-4,-12.51396 -3.68374,-22.53084 -11.05099,-30.05071 -7.36741,-7.51971 -17.20799,-11.27962 -29.52174,-11.27968 -12.2122,6e-5 -22.00194,3.75997 -29.36925,11.27968 -7.36735,7.51987 -11.05102,17.53675 -11.05099,30.05071 z m 21.49677,0 c 0,-3.32942 0.32801,-6.48333 0.98409,-9.46173 0.65598,-2.9783 1.7155,-5.65326 3.17854,-8.02491 1.46297,-2.37155 3.43107,-4.23879 5.90434,-5.60175 2.4732,-1.36284 5.42536,-2.04427 8.8565,-2.04433 3.53272,6e-5 6.53569,0.68149 9.00899,2.04433 2.47317,1.36296 4.44127,3.2302 5.90434,5.60175 1.46294,2.37165 2.52243,5.04661 3.17854,8.02491 0.65598,2.9784 0.98399,6.13231 0.98405,9.46173 -6e-5,3.32949 -0.32807,6.45801 -0.98405,9.3855 -0.65611,2.92756 -1.7156,5.57713 -3.17854,7.94868 -1.46307,2.37161 -3.43117,4.23886 -5.90434,5.60176 -2.4733,1.36289 -5.47627,2.04433 -9.00899,2.04433 -3.43114,0 -6.3833,-0.68144 -8.8565,-2.04433 -2.47327,-1.3629 -4.44137,-3.23015 -5.90434,-5.60176 -1.46304,-2.37155 -2.52256,-5.02112 -3.17854,-7.94868 -0.65608,-2.92749 -0.98409,-6.05601 -0.98409,-9.3855 z" style="font-size:48px;font-style:normal;font-variant:normal;font-weight:bold;font-stretch:normal;line-height:125%;letter-spacing:0px;word-spacing:0px;fill:black;fill-opacity:1;stroke:none;font-family:Helvetica75;-inkscape-font-specification:Helvetica75 Bold" id="path3011" inkscape:connector-curvature="0" />
      <path sodipodi:nodetypes="ccssscccccccccccccc" d="m 500.37596,509.74026 23.46827,0 0,-40.40138 c 0,-7.85277 1.07204,-11.03943 3.74213,-14.46844 2.67003,-3.42892 5.67085,-5.14346 11.63188,-5.14346 5.03594,0 6.48516,1.54092 8.64263,4.6225 2.1573,3.08174 3.236,5.39865 3.23607,11.85917 l 0,43.53161 24.03326,0 0,-47.40793 c -10e-5,-5.06833 -0.43675,-9.51643 -1.30994,-13.3443 -0.87339,-3.82775 -2.41461,-7.10809 -4.62364,-9.84103 -2.20922,-2.73278 -5.21479,-4.8446 -9.0168,-6.33545 -3.80214,-1.49073 -6.93148,-2.9657 -12.58203,-2.96576 -4.82905,6e-5 -11.12185,1.72581 -15.48989,3.91263 -4.36026,2.67996 -6.58859,6.50343 -9.08258,9.63802 l 0,-10.73277 -22.64936,0 z" style="font-size:48px;font-style:normal;font-variant:normal;font-weight:bold;font-stretch:normal;line-height:125%;letter-spacing:0px;word-spacing:0px;fill:black;fill-opacity:1;stroke:none;font-family:Helvetica75;-inkscape-font-specification:Helvetica75 Bold" id="path3013" inkscape:connector-curvature="0" />
      <path inkscape:connector-curvature="0" id="path3030" d="m 602.04379,470.60387 -10.14274,0 -17.0253,-38.3975 11.22945,0 10.86722,24.63236 30.4282,-63.75434 11.5917,0 z" style="fill:red;stroke:none" />
      <path sodipodi:nodetypes="ccccccccc" inkscape:connector-curvature="0" id="path3053" d="m 259.04274,432.90538 21.98978,0 0,12.47647 c 7.6136,-11.67035 16.66621,-15.55172 26.35655,-13.1003 l -0.15596,20.8981 c -11.24447,-1.5535 -20.49376,1.50686 -25.1089,15.28368 l 0,41.48426 -22.92552,0 z" style="fill:black;stroke:none" />
      <path inkscape:connector-curvature="0" id="path3055" d="m 410.99275,509.92896 -65.80797,0 0,-18.07526 36.15051,-40.88869 -35.97503,0 0,-18.07525 63.70213,0 0,18.07525 -36.85247,41.23967 38.78283,0 z" style="fill:black;stroke:none" />
    </g>
  </g>
</svg>
